<?xml version="1.0" standalone="no"?>
<!DOCTYPE svg PUBLIC "-//W3C//DTD SVG 20010904//EN"
 "http://www.w3.org/TR/2001/REC-SVG-20010904/DTD/svg10.dtd">
<svg version="1.0" xmlns="http://www.w3.org/2000/svg"
 width="16.000000pt" height="16.000000pt" viewBox="0 0 16.000000 16.000000"
 preserveAspectRatio="xMidYMid meet">
<metadata>
Created by potrace 1.11, written by Peter Selinger 2001-2013
</metadata>
<g transform="translate(0.000000,16.000000) scale(0.002667,-0.002667)"
fill="#000000" stroke="none">
<path d="M2947 5983 c-2 -4 -161 -518 -352 -1140 l-348 -1133 -1081 0 -1081 0
25 -24 c14 -13 398 -304 855 -646 457 -343 833 -626 838 -630 4 -3 -74 -260
-173 -569 -99 -310 -179 -565 -178 -566 3 -4 1344 1028 1371 1053 16 17 -2 44
-372 547 -214 292 -388 532 -386 535 2 3 327 203 724 445 396 242 723 446 726
454 4 11 -547 1665 -560 1679 -2 2 -5 0 -8 -5z"/>
<path d="M3649 3873 c-2 -5 -205 -138 -451 -296 l-447 -288 178 -247 c97 -136
266 -370 375 -521 109 -151 200 -279 202 -286 6 -14 -2224 -1651 -2245 -1648
-8 1 -20 -5 -27 -12 -18 -17 -195 -569 -184 -573 6 -2 1725 1320 1915 1473
l41 33 963 -724 c530 -399 966 -723 968 -720 3 3 -178 523 -401 1157 -223 634
-404 1153 -403 1154 20 13 1768 1343 1782 1356 19 19 -4 19 -1091 19 l-1110 0
-20 62 c-18 56 -37 81 -45 61z"/>
</g>
</svg>
