<?xml version="1.0" standalone="no"?>
<!DOCTYPE svg PUBLIC "-//W3C//DTD SVG 20010904//EN"
 "http://www.w3.org/TR/2001/REC-SVG-20010904/DTD/svg10.dtd">
<svg version="1.0" xmlns="http://www.w3.org/2000/svg"
 width="16.000000pt" height="16.000000pt" viewBox="0 0 16.000000 16.000000"
 preserveAspectRatio="xMidYMid meet">
<metadata>
Created by potrace 1.11, written by Peter Selinger 2001-2013
</metadata>
<g transform="translate(0.000000,16.000000) scale(0.000889,-0.000889)"
fill="#000000" stroke="none">
<path d="M8883 14757 c-6 -17 -30 -92 -52 -164 -23 -73 -59 -190 -80 -260 -22
-71 -81 -261 -131 -423 -50 -162 -98 -317 -106 -345 -9 -27 -63 -201 -119
-385 -57 -184 -134 -432 -170 -550 -37 -118 -112 -361 -167 -540 -55 -179
-107 -347 -116 -375 -8 -27 -16 -54 -18 -60 -1 -5 -27 -91 -59 -190 -31 -99
-61 -193 -65 -210 -9 -31 -18 -62 -90 -295 -23 -74 -48 -155 -55 -180 -37
-128 -117 -376 -123 -382 -4 -4 -940 -9 -2081 -12 -1141 -3 -2076 -7 -2077 -9
-2 -2 45 -39 104 -84 127 -96 415 -314 457 -347 34 -27 321 -244 495 -375 63
-47 117 -88 120 -91 3 -3 79 -62 170 -130 91 -68 167 -126 170 -129 3 -3 66
-52 140 -107 74 -56 180 -136 235 -178 55 -43 110 -85 123 -94 24 -17 156
-118 202 -153 27 -21 163 -124 505 -384 116 -87 246 -186 290 -220 44 -34 112
-85 150 -114 39 -29 77 -58 85 -64 8 -7 27 -21 41 -32 l26 -20 -28 -85 c-113
-349 -226 -696 -263 -810 -237 -722 -397 -1217 -397 -1225 0 -2 -7 -21 -15
-42 l-16 -37 39 29 c21 16 40 31 43 34 3 4 52 42 110 86 58 44 112 85 120 92
25 20 214 166 250 193 18 14 38 30 44 35 6 6 49 39 96 75 47 35 90 68 95 73
13 10 701 544 745 577 18 14 117 90 220 170 102 80 200 155 216 167 16 12 79
61 139 108 61 48 152 119 203 158 51 40 119 92 151 117 32 25 92 71 134 103
42 32 79 63 83 68 3 5 -63 102 -147 217 -84 114 -243 331 -354 482 -111 151
-231 314 -266 361 -35 48 -109 149 -164 224 -55 75 -118 161 -140 191 -22 29
-51 70 -65 89 -14 20 -30 42 -35 48 -6 7 -32 41 -58 77 -26 36 -54 74 -62 85
-69 88 -205 281 -203 287 2 4 208 134 458 289 250 154 488 302 529 327 89 56
124 78 188 116 26 16 111 68 188 116 323 201 1336 827 1407 870 43 26 76 49
73 52 -6 5 -90 249 -194 558 -35 102 -67 194 -71 205 -5 11 -48 135 -95 275
-115 338 -211 619 -340 995 -59 171 -117 342 -130 380 -13 39 -67 196 -120
350 -53 154 -109 317 -124 362 -15 46 -30 85 -32 88 -3 2 -10 -10 -16 -28z"/>
<path d="M9903 10502 c-204 -136 -378 -251 -387 -257 -289 -185 -1005 -673
-1001 -682 2 -7 82 -122 176 -255 95 -134 220 -310 278 -393 58 -82 109 -154
114 -160 4 -5 57 -80 117 -165 158 -224 336 -476 563 -795 110 -154 202 -287
204 -296 3 -11 -31 -44 -109 -105 -62 -49 -122 -96 -133 -105 -18 -15 -374
-299 -466 -371 -52 -41 -373 -296 -664 -527 -143 -114 -381 -304 -530 -421
-148 -118 -277 -220 -285 -227 -78 -62 -213 -169 -275 -218 -42 -33 -90 -72
-108 -86 -18 -15 -246 -196 -507 -403 -261 -208 -484 -385 -495 -394 -11 -10
-29 -24 -41 -32 -11 -8 -41 -32 -65 -52 -24 -20 -61 -49 -82 -65 -20 -15 -210
-165 -420 -333 l-383 -305 -48 -155 c-26 -85 -49 -162 -51 -170 -3 -8 -25 -80
-49 -159 -25 -80 -44 -146 -43 -148 2 -1 12 5 23 15 10 9 55 44 99 78 44 33
168 128 275 210 107 83 467 359 800 614 333 255 634 486 670 514 36 28 83 65
105 81 22 16 47 35 55 42 14 11 295 227 638 490 85 65 180 138 212 163 31 25
128 99 215 165 131 100 341 261 380 293 147 117 308 232 318 226 6 -4 203
-152 437 -328 234 -176 565 -425 735 -554 171 -128 318 -240 328 -248 10 -8
42 -32 70 -52 29 -20 54 -39 57 -42 3 -3 77 -60 165 -126 174 -131 589 -444
1000 -754 143 -108 352 -266 465 -350 113 -85 207 -157 210 -160 3 -3 39 -30
80 -60 41 -30 77 -57 80 -60 6 -7 112 -84 126 -93 6 -3 -16 69 -48 161 -91
255 -122 343 -183 517 -31 88 -60 169 -65 180 -5 11 -86 241 -181 510 -94 270
-194 553 -221 630 -28 77 -65 183 -83 235 -19 52 -57 160 -85 240 -29 80 -67
188 -85 240 -54 154 -142 405 -325 920 -95 267 -196 553 -225 635 -29 83 -60
169 -69 192 l-15 42 37 29 c20 16 123 93 227 173 105 79 195 147 200 151 25
20 59 47 117 91 35 26 185 140 333 252 149 113 319 243 379 288 60 45 114 87
120 92 6 6 67 52 136 104 69 52 179 136 245 186 66 50 143 108 170 129 28 20
57 43 65 49 8 7 62 48 120 92 58 44 110 83 115 88 6 4 46 35 90 68 44 34 94
71 110 84 17 13 109 84 206 157 96 73 211 160 255 194 43 33 147 111 229 174
210 159 345 263 345 265 0 1 -575 3 -2737 6 l-1571 2 -17 56 c-10 31 -26 83
-36 116 -11 33 -21 71 -24 84 -2 13 -6 25 -7 27 -2 1 -170 -108 -375 -244z"/>
</g>
</svg>
